<?xml version="1.0" encoding="iso-8859-1"?>
<!-- Uploaded to: SVG Repo, www.svgrepo.com, Generator: SVG Repo Mixer Tools -->
<svg height="800px" width="800px" version="1.1" id="Layer_1" xmlns="http://www.w3.org/2000/svg" xmlns:xlink="http://www.w3.org/1999/xlink" 
	 viewBox="0 0 511.999 511.999" xml:space="preserve">
<path style="fill:#AFB9D2;" d="M450.231,398.362c-59.017,34.073-134.749,13.781-168.822-45.236s-13.781-134.749,45.236-168.822
	l17.655,30.58c-42.155,24.339-56.648,78.435-32.311,120.587s78.432,56.65,120.587,32.311L450.231,398.362z"/>
<path style="fill:#C7CFE2;" d="M396.755,168.077l-24.845-32.822c-5.374-7.1-15.193-9.086-22.904-4.633l-80.034,46.208
	c-7.711,4.452-10.9,13.949-7.439,22.153l17.72,41.999c2.065,4.893,7.949,6.868,12.547,4.213l50.006-28.872
	c40.739-23.521,93.987-13.174,120.049,25.988c28.334,42.578,14.642,99.684-28.714,125.14c-7.772,4.563-11.555,14.316-7.967,22.583
	c4.281,9.863,16.018,13.545,25.056,8.327c59.017-34.073,79.309-109.805,45.236-168.822
	C474.125,192.577,436.44,170.816,396.755,168.077z"/>
<circle style="fill:#AFB9D2;" cx="441.401" cy="383.073" r="8.828"/>
<circle style="fill:#5B5D6E;" cx="290.041" cy="200.342" r="13.241"/>
<g>
	<path style="fill:#AFB9D2;" d="M329.875,172.247l-15.289,8.828c-4.222,2.438-9.621,0.991-12.059-3.231l0,0
		c-2.438-4.222-0.991-9.621,3.231-12.058l15.289-8.828c4.222-2.438,9.621-0.991,12.059,3.231l0,0
		C335.544,164.41,334.097,169.809,329.875,172.247z"/>
	<path style="fill:#AFB9D2;" d="M324.279,144.898l-30.58,17.655l-8.828-15.289c-2.438-4.222-0.991-9.621,3.231-12.058l15.289-8.828
		c4.222-2.438,9.621-0.991,12.059,3.231L324.279,144.898z"/>
	<path style="fill:#AFB9D2;" d="M61.768,398.362c59.017,34.073,134.749,13.781,168.822-45.236s13.781-134.749-45.236-168.822
		l-17.655,30.58c42.155,24.339,56.648,78.435,32.311,120.587s-78.432,56.65-120.587,32.311L61.768,398.362z"/>
</g>
<path style="fill:#C7CFE2;" d="M115.244,168.077l24.845-32.822c5.374-7.1,15.193-9.086,22.904-4.633l80.034,46.208
	c7.711,4.452,10.9,13.949,7.439,22.153l-17.72,41.999c-2.065,4.893-7.949,6.868-12.547,4.213l-50.006-28.872
	c-40.739-23.521-93.987-13.174-120.049,25.988c-28.334,42.578-14.642,99.684,28.714,125.14c7.772,4.563,11.555,14.316,7.967,22.583
	c-4.281,9.863-16.018,13.545-25.056,8.327C2.753,364.288-17.54,288.556,16.534,229.539
	C37.874,192.577,75.559,170.816,115.244,168.077z"/>
<circle style="fill:#AFB9D2;" cx="70.596" cy="383.073" r="8.828"/>
<circle style="fill:#5B5D6E;" cx="221.969" cy="200.342" r="13.241"/>
<g>
	<path style="fill:#AFB9D2;" d="M182.124,172.247l15.289,8.828c4.222,2.438,9.621,0.991,12.058-3.231l0,0
		c2.438-4.222,0.991-9.621-3.231-12.058l-15.289-8.828c-4.222-2.438-9.621-0.991-12.058,3.231l0,0
		C176.455,164.41,177.902,169.809,182.124,172.247z"/>
	<path style="fill:#AFB9D2;" d="M187.72,144.898l30.58,17.655l8.828-15.289c2.438-4.222,0.991-9.621-3.231-12.058l-15.289-8.828
		c-4.222-2.438-9.621-0.991-12.058,3.231L187.72,144.898z"/>
</g>
<path style="fill:#959CB3;" d="M305.031,133.899l-33.444-22.296c2.457-2.926,2.81-7.223,0.583-10.566
	c-2.707-4.061-8.181-5.155-12.242-2.449l-3.932,2.621l-3.932-2.621c-4.077-2.707-9.551-1.612-12.242,2.449
	c-2.228,3.342-1.875,7.639,0.583,10.566l-33.444,22.296c-4.061,2.707-5.155,8.181-2.449,12.242c1.698,2.552,4.5,3.932,7.353,3.932
	c1.681,0,3.38-0.483,4.888-1.483l39.242-26.161l39.242,26.161c1.508,1,3.207,1.483,4.888,1.483c2.854,0,5.655-1.379,7.353-3.932
	C310.187,142.08,309.092,136.606,305.031,133.899z"/>
</svg>